<svg id="Capa_1" enable-background="new 0 0 512 512" height="512" viewBox="0 0 512 512" width="512" xmlns="http://www.w3.org/2000/svg"><g><g><path d="m230.4 503.467c0 4.713-3.821 8.533-8.533 8.533h-34.133c-4.713 0-8.533-3.82-8.533-8.533v-115.886h51.2v115.886z" fill="#d2a677"/><path d="m206.706 387.581v115.885c0 4.713-3.82 8.533-8.533 8.533h23.694c4.713 0 8.534-3.82 8.534-8.533v-115.885z" fill="#b38a68"/><path d="m353.782 477.867h-297.964l9.768-34.134h278.428z" fill="#a87858"/></g><path d="m360.13 339.144 46.356 161.975c1.56 5.452-2.533 10.881-8.204 10.881h-33.448c-3.809 0-7.156-2.524-8.204-6.185l-37.314-130.343v-49.212h40.754z" fill="#d2a677"/><path d="m49.465 339.144-46.356 161.975c-1.56 5.452 2.533 10.881 8.204 10.881h33.448c3.809 0 7.156-2.524 8.204-6.185l37.315-130.343v-49.212h-40.755z" fill="#d2a677"/><path d="m406.486 501.119-46.356-161.975-.06-12.884h-23.694l.06 12.884 46.356 161.975c1.56 5.452-2.533 10.881-8.204 10.881h23.694c5.671 0 9.764-5.429 8.204-10.881z" fill="#b38a68"/><path d="m71.041 326.26v33.63l-41.77 145.925c-1.048 3.661-4.395 6.186-8.204 6.186h23.694c3.809 0 7.156-2.524 8.204-6.186l37.315-130.343v-49.212z" fill="#b38a68"/><path d="m326.412 400.26h51.209l-4.422-15.453h-51.211z" fill="#a87858"/><path d="m31.917 400.459h51.209l4.424-15.453h-51.211z" fill="#a87858"/><circle cx="204.8" cy="204.8" fill="#e27f84" r="204.8"/><path d="m204.8 0c-3.978 0-7.925.126-11.847.35 107.593 6.138 192.953 95.32 192.953 204.45s-85.36 198.312-192.953 204.451c3.922.224 7.869.349 11.847.349 113.108 0 204.8-91.692 204.8-204.8s-91.692-204.8-204.8-204.8z" fill="#c9646d"/><circle cx="204.8" cy="204.8" fill="#edf6ff" r="136.533"/><path d="m204.8 68.267c-3.992 0-7.942.182-11.847.517 69.857 6.006 124.686 64.603 124.686 136.016s-54.83 130.01-124.686 136.016c3.906.336 7.855.517 11.847.517 75.406 0 136.534-61.128 136.534-136.533-.001-75.405-61.129-136.533-136.534-136.533z" fill="#d8e2f3"/><circle cx="204.8" cy="204.8" fill="#e27f84" r="68.267"/><path d="m204.8 136.533c-4.043 0-7.997.372-11.847 1.046 32.052 5.612 56.42 33.561 56.42 67.221s-24.367 61.609-56.42 67.221c3.85.674 7.804 1.046 11.847 1.046 37.703 0 68.267-30.564 68.267-68.267s-30.564-68.267-68.267-68.267z" fill="#c9646d"/><path d="m204.8 171.474c-4.268 0-7.726 3.459-7.726 7.726v17.873h-17.874c-4.268 0-7.726 3.459-7.726 7.726 0 4.268 3.459 7.726 7.726 7.726h17.874v17.875c0 4.268 3.459 7.726 7.726 7.726 4.268 0 7.726-3.459 7.726-7.726v-51.2c.001-4.267-3.458-7.726-7.726-7.726z" fill="#c9646d"/><g><path d="m375.467 221.867 31.6 47.4c1.583 2.374 4.247 3.8 7.1 3.8h89.285c6.816 0 10.881-7.596 7.1-13.267l-25.289-37.933v-34.133l25.289-37.933c3.78-5.671-.285-13.267-7.1-13.267h-89.285c-2.853 0-5.517 1.426-7.1 3.8l-31.6 47.4z" fill="#edf6ff"/><path d="m485.263 221.867v-34.133l25.289-37.933c3.78-5.671-.285-13.267-7.101-13.267h-23.694c6.816 0 10.881 7.596 7.101 13.267l-25.289 37.933v34.133l25.289 37.933c3.78 5.671-.285 13.267-7.101 13.267h23.694c6.816 0 10.881-7.596 7.101-13.267z" fill="#d8e2f3"/><path d="m451.515 136.533-42.656 63.983c-1.729 2.595-1.729 5.975.001 8.569l42.654 63.981h18.571l-45.51-68.267 45.512-68.267h-18.572z" fill="#d8e2f3"/><path d="m486.933 221.867h-274.133c-4.418 0-8-3.582-8-8v-18.133c0-4.418 3.582-8 8-8h274.133c4.418 0 8 3.582 8 8v18.133c0 4.418-3.581 8-8 8z" fill="#d2a677"/><path d="m486.692 187.733h-23.694c4.551 0 8.241 3.69 8.241 8.241v17.65c0 4.552-3.69 8.242-8.241 8.242h23.694c4.551 0 8.241-3.69 8.241-8.242v-17.65c.001-4.551-3.69-8.241-8.241-8.241z" fill="#b38a68"/></g></g></svg>