<svg height="512" viewBox="0 0 64 64" width="512" xmlns="http://www.w3.org/2000/svg"><g id="perception"><path d="m55 9v9.9l-2.83-2.83-4.95 4.95-4.24-4.24 4.95-4.95-2.83-2.83z" fill="#00d7df"/><path d="m45 54v7h-26v-7a6.981 6.981 0 0 1 3.23-5.33 8.355 8.355 0 0 1 1.84-.57c.23-.05.93-.1.93-.1h14s.7.05.93.1a8.379 8.379 0 0 1 1.84.58 6.989 6.989 0 0 1 3.23 5.32z" fill="#a4e276"/><path d="m45 54v7h-4v-7a6.989 6.989 0 0 0 -3.23-5.32 8.379 8.379 0 0 0 -1.84-.58c-.23-.05-.93-.1-.93-.1h4s.7.05.93.1a8.379 8.379 0 0 1 1.84.58 6.989 6.989 0 0 1 3.23 5.32z" fill="#7ed63e"/><path d="m39 48-7 4-7-4 4-3v-3.81a5.961 5.961 0 0 0 6 0v3.81z" fill="#ffdaaa"/><path d="m45 38a19.761 19.761 0 0 1 -3.23 10.68 17.544 17.544 0 0 1 -2.75 3.32 20.353 20.353 0 0 0 .91-3.9 8.023 8.023 0 0 0 .07-1.1 16.494 16.494 0 0 0 -2.33-9.03 6.122 6.122 0 0 0 .33-1.97v-6l-8-2-4 2v6a5.761 5.761 0 0 0 .33 1.96v.01a16.494 16.494 0 0 0 -2.33 9.03 8.023 8.023 0 0 0 .07 1.1 20.373 20.373 0 0 0 .93 3.9 18.082 18.082 0 0 1 -2.77-3.33 19.811 19.811 0 0 1 -3.23-10.67c0-9.37 5.89-17 13-17s13 7.63 13 17z" fill="#ffa733"/><path d="m45 38a19.761 19.761 0 0 1 -3.23 10.68 17.544 17.544 0 0 1 -2.75 3.32 22.948 22.948 0 0 0 .86-3.5 19.714 19.714 0 0 0 3.12-10.5c0-8.93-5.35-16.27-12-16.94a8.262 8.262 0 0 1 1-.06c7.11 0 13 7.63 13 17z" fill="#ff9811"/><path d="m38 30v6a6.122 6.122 0 0 1 -.33 1.97 6.02 6.02 0 0 1 -2.67 3.22 5.961 5.961 0 0 1 -6 0 6.02 6.02 0 0 1 -2.67-3.22v-.01a5.761 5.761 0 0 1 -.33-1.96v-6l4-2z" fill="#ffdaaa"/><path d="m38 30v6a6.122 6.122 0 0 1 -.33 1.97 6.02 6.02 0 0 1 -2.67 3.22 5.857 5.857 0 0 1 -3 .81 6.531 6.531 0 0 1 -1-.08 5.79 5.79 0 0 0 2-.73 6.02 6.02 0 0 0 2.67-3.22 6.122 6.122 0 0 0 .33-1.97v-6l-6.67-1.67.67-.33z" fill="#ffc477"/><path d="m21.02 16.78-4.24 4.24-4.95-4.95-2.83 2.83v-9.9h9.9l-2.83 2.83z" fill="#00d7df"/><path d="m35 17h-6v-7h-4.005l7.005-7 7.005 7h-4.005z" fill="#00d7df"/><path d="m43.14 48.36a20.57 20.57 0 0 0 2.86-10.36c0-9.93-6.28-18-14-18s-14 8.07-14 18a20.493 20.493 0 0 0 2.87 10.35 6.987 6.987 0 0 0 -2.87 5.65v7a1 1 0 0 0 1 1h26a1 1 0 0 0 1-1v-7a6.986 6.986 0 0 0 -2.86-5.64zm-23.14-10.36c0-8.82 5.38-16 12-16s12 7.18 12 16a18.6 18.6 0 0 1 -3.06 10.13 10.416 10.416 0 0 0 .06-1.13 17.866 17.866 0 0 0 -2.25-9.18 6.835 6.835 0 0 0 .25-1.82v-6a1 1 0 0 0 -.76-.97l-8-2a.972.972 0 0 0 -.69.08l-4 2a.977.977 0 0 0 -.55.89v6a6.835 6.835 0 0 0 .25 1.82 17.866 17.866 0 0 0 -2.25 9.18 10.047 10.047 0 0 0 .06 1.11 18.608 18.608 0 0 1 -3.06-10.11zm8 3.74v2.76l-2.99 2.24a17.26 17.26 0 0 1 1.3-6.67 7.44 7.44 0 0 0 1.69 1.67zm-1-5.74v-5.38l3.12-1.56 6.88 1.72v5.22a5 5 0 0 1 -10 0zm2.6 9.8a1.014 1.014 0 0 0 .4-.8v-2.29a7.042 7.042 0 0 0 4 0v2.29a1.014 1.014 0 0 0 .4.8l2.78 2.09-5.18 2.96-5.18-2.96zm6.4-1.3v-2.76a7.44 7.44 0 0 0 1.69-1.67 17.26 17.26 0 0 1 1.3 6.67zm8 15.5h-24v-6a5 5 0 0 1 1.96-3.96 18.279 18.279 0 0 0 2.36 2.69.975.975 0 0 0 1.2.07 1.067 1.067 0 0 0 .41-1.19c-.23-.75-.47-1.51-.64-2.3l6.21 3.56a1.027 1.027 0 0 0 1 0l6.22-3.56c-.18.84-.42 1.64-.66 2.4a1 1 0 0 0 .43 1.14 1.014 1.014 0 0 0 .53.15.977.977 0 0 0 .68-.27 18.039 18.039 0 0 0 2.34-2.68 4.964 4.964 0 0 1 1.96 3.95z"/><path d="m39.71 9.29-7-7a1.008 1.008 0 0 0 -1.42 0l-7 7a1 1 0 0 0 -.21 1.09.987.987 0 0 0 .92.62h3v6a1 1 0 0 0 1 1h6a1 1 0 0 0 1-1v-6h3a.987.987 0 0 0 .92-.62 1 1 0 0 0 -.21-1.09zm-4.71-.29a1 1 0 0 0 -1 1v6h-4v-6a1 1 0 0 0 -1-1h-1.59l4.59-4.59 4.59 4.59z"/><path d="m21.73 16.07-4.24-4.24 2.12-2.12a1 1 0 0 0 .21-1.09.987.987 0 0 0 -.92-.62h-9.9a1 1 0 0 0 -1 1v9.9a.987.987 0 0 0 .62.92 1 1 0 0 0 1.09-.21l2.12-2.12 4.24 4.24a.99.99 0 0 0 .71.29 1.007 1.007 0 0 0 .71-.29l4.24-4.24a1.008 1.008 0 0 0 0-1.42zm-4.95 3.54-4.24-4.25a1.042 1.042 0 0 0 -.71-.29 1.024 1.024 0 0 0 -.71.29l-1.12 1.13v-6.49h6.49l-1.13 1.12a1.008 1.008 0 0 0 0 1.42l4.25 4.24z"/><path d="m55 8h-9.9a.987.987 0 0 0 -.92.62 1 1 0 0 0 .21 1.09l2.12 2.12-4.24 4.24a1.008 1.008 0 0 0 0 1.42l4.24 4.24a1.007 1.007 0 0 0 .71.29.99.99 0 0 0 .71-.29l4.24-4.24 2.12 2.12a1 1 0 0 0 1.09.21.987.987 0 0 0 .62-.92v-9.9a1 1 0 0 0 -1-1zm-1 8.49-1.12-1.13a1.008 1.008 0 0 0 -1.42 0l-4.24 4.25-2.83-2.83 4.25-4.24a1.008 1.008 0 0 0 0-1.42l-1.13-1.12h6.49z"/><path d="m15 31h2v2h-2z"/><path d="m6 31h7v2h-7z"/><path d="m2 31h2v2h-2z"/><path d="m47 31h2v2h-2z"/><path d="m51 31h7v2h-7z"/><path d="m60 31h2v2h-2z"/><path d="m29 32h2v2h-2z"/><path d="m33 32h2v2h-2z"/></g></svg>