<svg id="Capa_1" enable-background="new 0 0 512.06 512.06" height="512" viewBox="0 0 512.06 512.06" width="512" xmlns="http://www.w3.org/2000/svg"><path d="m505.049 263.128c-12.443-16.176-36.271-17.723-50.701-3.292l-46.436 46.437c3.862 7.352 6.059 15.71 6.059 24.575 0 29.245-23.792 53.037-53.037 53.037h-126.934c-8.284 0-15-6.716-15-15s6.716-15 15-15h126.934c12.703 0 23.037-10.334 23.037-23.037s-10.334-23.037-23.037-23.037h-62.096c-11.277 0-21.765-5.066-28.775-13.899l-6.844-8.623c-6.111-7.722-14.232-9.544-24.746-9.544h-44.851c-13.107 0-25.789 4.655-35.784 13.135l-115.738 71.926 77.875 110.874 23.847-18.948h190.927c14.713 0 28.819-5.862 39.199-16.289l128.264-128.853c11.959-12.013 13.172-31.026 2.837-44.462z" fill="#fccfcf"/><path d="m100.016 509.347 27.721-16.005c9.566-5.523 12.843-17.755 7.321-27.32l-70.013-121.265c-5.523-9.566-17.755-12.843-27.321-7.32l-27.721 16.005c-9.566 5.523-12.843 17.755-7.321 27.321l70.012 121.265c5.524 9.564 17.756 12.842 27.322 7.319z" fill="#466288"/><path d="m360.934 353.884c12.703 0 23.037-10.334 23.037-23.037s-10.334-23.037-23.037-23.037h-62.096c-11.277 0-21.765-5.066-28.775-13.899l-6.844-8.623c-2.15-2.717-4.554-4.691-7.218-6.124v74.721h104.933z" fill="#f9a9a9"/><path d="m505.049 263.128c-12.443-16.176-36.271-17.723-50.701-3.292l-46.436 46.437c3.862 7.352 6.059 15.71 6.059 24.575 0 29.245-23.792 53.037-53.037 53.037h-104.934v68.848h78.749c14.713 0 28.819-5.862 39.199-16.289l128.264-128.854c11.959-12.013 13.172-31.026 2.837-44.462z" fill="#f9a9a9"/><circle cx="256" cy="45.206" fill="#fdb43a" r="45.176"/><path d="m286.242 120.383h-60.485c-23.333 0-43.669 15.888-49.314 38.528l-11.803 47.339c-1.999 8.017 4.066 15.78 12.328 15.78h158.062c8.263 0 14.327-7.762 12.328-15.78l-11.803-47.339c-5.644-22.64-25.979-38.528-49.313-38.528z" fill="#fdb43a"/><g fill="#f57a21"><path d="m301.176 45.206c0-24.95-20.226-45.176-45.176-45.176v90.353c24.95 0 45.176-20.226 45.176-45.177z"/><path d="m347.36 206.25-11.803-47.339c-5.645-22.64-25.981-38.528-49.314-38.528h-30.243v101.647h79.031c8.263 0 14.328-7.763 12.329-15.78z"/></g></svg>